<svg xmlns="http://www.w3.org/2000/svg" width="15" height="15" fill="none" viewBox="0 0 15 15"><path fill="currentColor" fill-rule="evenodd" d="M4.6.06a.45.45 0 0 0-.52.27l-.93 2.32-2.32.93a.45.45 0 0 0-.19.69L2.01 6.1l-.95 3.8c-.05.2.06.43.27.52l2.87 1.2 1.43 2.13c.1.16.3.24.5.18l3.5-1h.01l3-1a.5.5 0 0 0 .3-.33l1-4.5a.5.5 0 0 0-.17-.46l-1.82-1.37V3c0-.17-.1-.33-.25-.4l-3-1.5-.1-.04zm6.83 5.95 1.34 1-2.56 2.14-.14.2-.82 2.47-1.51-.95a.45.45 0 1 0-.48.76l1.14.72-2.2.63L4.86 11l-.2-.17-2.64-1.1.82-3.28H5a.45.45 0 1 0 0-.9H2.72l-1-1.35 1.8-.72 2.84.95q.29.08.5-.15l1.76-2.21 2.43 1.2V5.2l-2.22.88a.5.5 0 0 0-.26.28l-.5 1.5a.45.45 0 1 0 .86.28l.43-1.3zM7.71 1.77l-1.37 1.7-2.24-.75.67-1.69zm2.5 10.02 1.9-.64.66-2.96-1.88 1.57z" clip-rule="evenodd"/></svg>