<svg xmlns="http://www.w3.org/2000/svg" width="15" height="15" fill="none" viewBox="0 0 15 15"><path fill="currentColor" fill-rule="evenodd" d="M7.07.65c-.4 0-.74.28-.83.66L6 2.36q-.57.17-1.08.45l-.9-.57a.85.85 0 0 0-1.06.11l-.6.61a.85.85 0 0 0-.13 1.05l.58.92q-.28.5-.45 1.07l-1.05.24a.85.85 0 0 0-.66.83v.86c0 .4.27.74.66.83L2.36 9q.17.57.45 1.08l-.57.9a.85.85 0 0 0 .11 1.06l.61.6c.28.29.72.34 1.05.13l.92-.58q.5.29 1.07.45l.24 1.05c.09.39.43.66.83.66h.86c.4 0 .74-.27.83-.66L9 12.64q.56-.16 1.07-.45l.92.58c.33.2.77.16 1.05-.12l.6-.6a.85.85 0 0 0 .12-1.06l-.57-.91q.29-.51.45-1.08l1.05-.24a.85.85 0 0 0 .66-.83v-.86c0-.4-.27-.74-.66-.83L12.64 6a5 5 0 0 0-.45-1.07l.57-.92a.85.85 0 0 0-.11-1.05l-.6-.6a.85.85 0 0 0-1.06-.12l-.91.57Q9.57 2.53 9 2.36l-.24-1.05a.85.85 0 0 0-.83-.66zM4.92 3.81a4.5 4.5 0 0 1 1.8-.74l.35-1.57h.86l.35 1.57q1 .18 1.8.74l1.36-.86.6.61-.85 1.36q.56.8.74 1.8l1.57.35v.86l-1.57.35a4.5 4.5 0 0 1-.74 1.8l.86 1.36-.61.6-1.36-.85q-.8.56-1.8.74l-.35 1.57h-.86l-.35-1.57a4.5 4.5 0 0 1-1.8-.74l-1.36.86-.6-.61.85-1.36a4.5 4.5 0 0 1-.74-1.8L1.5 7.93v-.86l1.57-.35q.18-1 .74-1.8l-.86-1.36.61-.6zm4.1 3.69a1.52 1.52 0 1 1-3.04 0 1.52 1.52 0 0 1 3.04 0m.9 0a2.42 2.42 0 1 1-4.84 0 2.42 2.42 0 0 1 4.84 0" clip-rule="evenodd"/></svg>