<svg xmlns="http://www.w3.org/2000/svg" width="15" height="15" fill="none" viewBox="0 0 15 15"><path fill="currentColor" fill-rule="evenodd" d="M5.5 1C5.22 1 5 1.22 5 1.5V2H2.5a.5.5 0 0 0 0 1H3l.8 9.46a1.5 1.5 0 0 0 1.5 1.37h4.4a1.5 1.5 0 0 0 1.5-1.37L12 3h.5a.5.5 0 0 0 0-1H10v-.5c0-.28-.22-.5-.5-.5h-4ZM9 2v-.1H6V2h3Zm2.1 1H3.9l.78 9.23a.5.5 0 0 0 .5.45h4.64a.5.5 0 0 0 .5-.45L11.1 3ZM5.5 4.75a.5.5 0 0 1 .5.5v5.5a.5.5 0 0 1-1 0v-5.5a.5.5 0 0 1 .5-.5Zm4 0a.5.5 0 0 1 .5.5v5.5a.5.5 0 0 1-1 0v-5.5a.5.5 0 0 1 .5-.5Zm-2 0a.5.5 0 0 1 .5.5v5.5a.5.5 0 0 1-1 0v-5.5a.5.5 0 0 1 .5-.5Z" clip-rule="evenodd"/></svg>
